<svg xmlns="http://www.w3.org/2000/svg" viewBox="0 0 717.26 731.02"><defs><style>.cls-1{fill:#1d1d1b;}</style></defs><g id="Logo_ban" data-name="Logo ban"><path class="cls-1" d="M4494.05,628.29c-8.88.13-21.55-4.51-31.67-5.35a4.83,4.83,0,0,1-4.22-3.34c-7.7-23.64-19-40.76-32.44-54,51.82-22.22,113.25-41.72,181.28-59.35,7.46-1.21,18.71-1.33,30.14-2.56,3.93-.41,7.95,5.64,6,9.08-29.24,45.84-69.22,103.36-107.71,162-27,41.08-44,85.55-58.45,121.76,20.86-31.91,55.88-64.08,98.83-96.4a11.14,11.14,0,0,1,11.31-1.2l6.94,3.18,6.61-5.88a4.23,4.23,0,0,1,5.91.31h0a4.19,4.19,0,0,1-.57,6.19c-53.69,40.68-105,97.21-155.15,161.08a4.67,4.67,0,0,1-2.58,1.49c-8.9,1.42-15.89-5.63-21.84-5.64-2.91,0-4.67-2-3.94-4.83,26.24-100.61,95.37-215.22,184-336.16-53.84,14-102.8,30-143.52,49.1,12.31,10.94,22.15,24.44,26.44,43.7a32.52,32.52,0,0,0,6.38,13.25A2.19,2.19,0,0,1,4494.05,628.29Z" transform="translate(-4403.29 -134.49)"/><path class="cls-1" d="M4748.27,794.51a4,4,0,0,0-5.68-1.65l-9.76,5.85-9.4-1.13a13.38,13.38,0,0,0-7.74,1.39l-15.23,7.83C4703.63,794.18,4688.55,625,4681,522l51.92-23.1a4.31,4.31,0,0,0-3.62-7.82l-10.35,4.41-5.13-1.46a13.86,13.86,0,0,0-9.45.69l-92.55,41.49a1.84,1.84,0,0,0,.23,3.45l21.77,6.43a8.24,8.24,0,0,0,6-.54l8.72-5.41,17,268.1a8.19,8.19,0,0,1-4,7.59c-16.35,5.38-31.24,15.82-45.91,27a.89.89,0,0,0,.29,1.64c9.1,0,17,4.21,25.4,5.19,1.54.28,3.21-.58,4.61-1.26L4746.42,800A4,4,0,0,0,4748.27,794.51Z" transform="translate(-4403.29 -134.49)"/><path class="cls-1" d="M4735.93,780.19l-4.1-242.11a8.29,8.29,0,0,1,5.38-8c5.35-1.94,12.93-3,20.39-4.17l-.54-3.81a4.34,4.34,0,0,1,4-5h0a4.35,4.35,0,0,1,4.38,2.71l92,228.52L4849,485.13a2.1,2.1,0,0,1,1.22-2c6.28-2.92,19.51-2.18,22.79-5.91V469a3.15,3.15,0,0,1,3.15-3.14h0c3.46-.35,5,2,5.15,3.63,10.59,108.43,9.4,221.16,3.73,346.5.37,4.51-17.14,14.62-25,21.86a1.4,1.4,0,0,1-2.23-.49L4766.62,627l-.6,135.44a2.2,2.2,0,0,1-.8,1.71c-8.94,7.2-21.79,10.65-28.34,16.49A.56.56,0,0,1,4735.93,780.19Z" transform="translate(-4403.29 -134.49)"/><path class="cls-1" d="M5039.16,705.1a4.54,4.54,0,0,0-6,1.95l-7.56,14.5-4.77,2.57a26,26,0,0,0-9.26,9.55c-14.24,28.13-35.19,47.53-60.93,55.62-20.44-16-15.57-88.48-10.82-145.5L4974.65,659a5.36,5.36,0,0,0,4.66-.09c8.26-4.41,23.25,3.06,31.42-6.31,17.66-20.66,1.86-112.11-30.23-131.08a10.06,10.06,0,0,0-11.21.68l-10.67,8.15-12.4,2.17a13.27,13.27,0,0,0-7,3.32c-46.31,44.5-41.25,272.09-9.48,284.71,22.58,3.9,96-67,111.41-109.33C5042,708.85,5041.42,706.23,5039.16,705.1Zm-78.79-155.71c14.57,23.28,20.85,52.19,21.95,84.63l-30.09-13a4,4,0,0,0-2.43-.23,30.67,30.67,0,0,0-4,.92c-1,.33,7.37,4.81,7.37,4.81,1,.83-10.29,6.19-12,5.26A289.58,289.58,0,0,1,4960.37,549.39Z" transform="translate(-4403.29 -134.49)"/><path class="cls-1" d="M4508.19,252.15,4635,156.29a2.21,2.21,0,0,1,1.13-.43l37-2.88c6.92,2.5-33.85,28.45-71.42,52.83-10.63,83.52-6.21,174.22,6.85,269.05-.26,4.16-3.47,8.59-8.81,13.2l-15.52,17.81a.82.82,0,0,1-1.42-.4c-17.85-95.26-26.2-185.83-21.21-269.82l-26.8,19a.43.43,0,0,1-.25.07l-26.24-1.88A.38.38,0,0,1,4508.19,252.15Z" transform="translate(-4403.29 -134.49)"/><path class="cls-1" d="M4854,324.13a57.42,57.42,0,0,0-18,14.33,3.42,3.42,0,0,0-.82,2.49c2.6,34.05,2.77,66.25-5.19,92.29-4.25,2.79-11.06-5.36-20-22.51-9.86-37.36-17.83-72.25-20.2-99.75,10.79,1.94,28.66-1.69,46.57-4.48,11.27-1.77,20.57-12.61,20.58-24,.05-29.79-2-57.3-11.62-76.29-10.11-16.58-20.93-28-33.93-23.51-5.32,3.12-10.49,7.82-15.6,13.41l-15.08,3.18c-9.31,5.56-16.25,14.62-22.94,24.05-20,39.26,1.39,146.06,29.87,216.21a127,127,0,0,0,12.77,23.94,51.81,51.81,0,0,0,5.07,6.53,12,12,0,0,0,12.31,3.28c4.53-1.44,7.09-4.88,8-10,11.62-9.8,17.6-19.87,20.14-30.12,12.61-41.47,19.33-82.34,16.63-122.28a1.91,1.91,0,0,0-1.69-1.76l-5.46-.61a1.89,1.89,0,0,0-2.1,2ZM4801.54,210.3c7.39,22.37,12.87,49.81,17.49,79.52a1.56,1.56,0,0,1-1.26,1.77l-26.82,5a1.76,1.76,0,0,1-2.08-1.64c-1.83-35.18-.53-66.6,11.78-84.77A.5.5,0,0,1,4801.54,210.3Z" transform="translate(-4403.29 -134.49)"/><path class="cls-1" d="M4419.61,402.07l-.9-1.2c-1.51-1.43-3.08-1.38-4.35.11l-2.93,3.2a4.29,4.29,0,0,0-.5,4.81l2.88,5.31-10.52,22.22c11.83,41.28,58.93,79.47,92.92,83.85,14.15-.52,23.85-8.48,27.95-25.83,7.11-6,11.52-14.35,13.75-24.48,7.7-44.72,0-78.54-15.41-107.88-12.48-19.83-30.2-31-54.79-41.34a31.39,31.39,0,0,1-19-24.19c-1.29-8.59-1-19.62,2.18-35.09,2.78-11.34,6-18.83,9.52-24l10.09,60.11a1.13,1.13,0,0,0,1.82.7,28.86,28.86,0,0,1,8.94-5c4.63-1.46,17.72-5.88,22.61-7.53a2.41,2.41,0,0,0,1.61-2.6l-9.26-69.2c-6.44-16.36-19.59-19.39-37.17-13.59-12.95,5-23.94,17.65-33.54,35.8-9.92,25.14-13.09,52.23-10,81.14.8,15.71,6.25,25.73,15,31.73,9.67,8.61,27.19,2.27,56.65,35.35,5,9.22,27.65,39.44,35.36,80.68-1.64,10.09-8.49,15.47-20.85,15.87-30.55-7.06-56.64-34.59-75.82-67.54Z" transform="translate(-4403.29 -134.49)"/><path class="cls-1" d="M4979.49,363.42h0a5.72,5.72,0,0,0-7.94,2.71c-12.37,28-29.18,53.71-51.08,62.2-17.7-8.71-18.47-53.59-17.94-101.23a2.21,2.21,0,0,1,2.93-2.06l19.55,6.8a5.55,5.55,0,0,0,6.68-2.54l.25-.46a5.55,5.55,0,0,1,4.17-2.81l15.75-1.95a16.76,16.76,0,0,0,14.59-14.57L4976.9,226c1.55-21.79-7-47.51-23-48.25L4935.26,191c-6.76-2.24-15.39-1.49-25.69,1.94-50.69,85.76-41.25,233.89-17.12,266.58,6,7.7,13.05,6.61,20.62,1.16l12.46-15.56c27.14-11.75,43.31-43.87,56.5-74.34A5.73,5.73,0,0,0,4979.49,363.42ZM4933.5,214a.14.14,0,0,1,.26,0,417.53,417.53,0,0,1,1.16,85.26.5.5,0,0,1-.66.43l-24.9-8.54a.7.7,0,0,1-.45-.79C4914.18,263.82,4922.92,238.56,4933.5,214Z" transform="translate(-4403.29 -134.49)"/><path class="cls-1" d="M5115.06,163.09l-23.16-1.81-2.94-1.41a33.81,33.81,0,0,0-15.07-3.26l-20,.34-.78-8.65a2.32,2.32,0,0,0-2.11-2.09h0a3.76,3.76,0,0,0-4.06,3.53l-.26,4.33-30.35-7.9a3.07,3.07,0,0,0-3.78,3.57h0l-74.8-15.24a.52.52,0,0,0-.37,1l33.36,19.5a6.48,6.48,0,0,0,2,.76l35.94,7c-18.23,63-26.39,296.65-17.84,354a1.06,1.06,0,0,0,1.95.4c5.44-8.22,18.87-8,20.7-23.6.86-117.88,17-223.32,38.94-324l61.58,5.51a6,6,0,0,0,6.49-5.93h0A6,6,0,0,0,5115.06,163.09Z" transform="translate(-4403.29 -134.49)"/><path class="cls-1" d="M4802.25,477.18c-45.39-51-87.37-99.79-117.56-141.07,27.64-20.62,48.8-44.95,51.56-67.23,4.42-35.7-23.08-74.2-65-73.54-12.82.42-23.67,13.76-28.57,21.44a5.43,5.43,0,0,0-.85,2.92v6.85a2.8,2.8,0,0,1-.72,1.89L4631.6,239a14.54,14.54,0,0,0-3.65,11.06c2.58,79.4,8.1,155.33,20.75,222.84a.23.23,0,0,0,.43.08c7.27-10.58,23.46-15.14,22.78-21.36l-9.08-80c31.23,44.16,73.3,90,117.19,136.14a.29.29,0,0,0,.49-.13C4783.7,496,4811,485.51,4802.25,477.18Zm-143.13-145-6-103.73c33.47,4.56,58.57,23.71,58.16,66.2C4697.32,309.2,4679.05,321.19,4659.12,332.19Z" transform="translate(-4403.29 -134.49)"/></g></svg>