<svg xmlns="http://www.w3.org/2000/svg" viewBox="0 0 1000 1000"><defs><style>.cls-1{fill:#fff;}</style></defs><g id="Logo_ban" data-name="Logo ban"><path class="cls-1" d="M592.82,370.1c-20.5.31-49.73-10.41-73.07-12.33a11.18,11.18,0,0,1-9.74-7.72c-17.74-54.54-43.8-94-74.82-124.49,119.52-51.25,261.23-96.22,418.16-136.9,17.2-2.79,43.16-3.08,69.52-5.89,9.07-1,18.33,13,13.82,20.93C869.23,209.44,777,342.13,688.24,477.36c-62.19,94.75-101.5,197.33-134.82,280.85,48.1-73.61,128.88-147.82,228-222.35a25.63,25.63,0,0,1,26.07-2.78l16,7.34,15.25-13.55a9.71,9.71,0,0,1,13.61.69h0A9.68,9.68,0,0,1,851,541.85C727.18,635.69,608.88,766.08,493.16,913.41a10.85,10.85,0,0,1-5.94,3.43c-20.54,3.28-36.66-13-50.39-13-6.7,0-10.77-4.64-9.08-11.13,60.51-232.08,220-496.43,424.35-775.41C727.91,149.7,615,186.45,521.06,230.53c28.39,25.25,51.08,56.4,61,100.81,3,12.23,7.94,22.35,14.71,30.57A5.06,5.06,0,0,1,592.82,370.1Z"/><path class="cls-1" d="M99.77,635l-2.07-2.78c-3.48-3.28-7.11-3.16-10,.26l-6.75,7.39a9.86,9.86,0,0,0-1.16,11.09l6.65,12.26L62.13,714.42c27.29,95.22,135.92,183.31,214.33,193.42,32.64-1.19,55-19.56,64.48-59.59,16.38-13.94,26.56-33.09,31.71-56.46,17.77-103.16,0-181.17-35.55-248.84-28.79-45.74-69.67-71.59-126.38-95.36a72.41,72.41,0,0,1-43.85-55.8c-3-19.81-2.3-45.24,5-80.94,6.41-26.16,13.87-43.42,22-55.41l23.27,138.64a2.6,2.6,0,0,0,4.2,1.61c4.22-3.42,11.89-8.91,20.62-11.66,10.68-3.36,40.87-13.54,52.14-17.35a5.54,5.54,0,0,0,3.71-6L276.46,201.07c-14.86-37.76-45.19-44.73-85.73-31.37-29.87,11.47-55.22,40.73-77.37,82.6-22.88,58-30.2,120.46-23,187.15,1.86,36.25,14.41,59.34,34.5,73.18,22.31,19.88,62.74,5.24,130.69,81.55,11.5,21.27,63.78,91,81.55,186.11C333.32,803.56,317.51,816,289,816.88c-70.47-16.29-130.64-79.78-174.88-155.79Z"/></g></svg>